<svg width="192" height="192" viewBox="0 0 192 192" fill="none" xmlns="http://www.w3.org/2000/svg">
<path d="M43.1667 163.833C41.3132 163.833 39.7585 163.205 38.5025 161.949C37.2465 160.693 36.6207 159.141 36.625 157.292V104.958L50.3625 65.7082C51.0167 63.7457 52.1876 62.1648 53.8754 60.9655C55.5631 59.7662 57.445 59.1665 59.5209 59.1665H90.9209C90.2667 61.238 89.7761 63.3641 89.449 65.5446C89.1219 67.7252 88.9584 69.9603 88.9584 72.2498H61.8104L54.9417 91.8748H93.374C95.7726 97.1082 99.1263 101.659 103.435 105.527C107.744 109.396 112.513 112.422 117.742 114.607C116.869 115.588 116.215 116.652 115.779 117.799C115.343 118.946 115.125 120.117 115.125 121.312C115.125 124.038 116.08 126.356 117.99 128.266C119.9 130.176 122.216 131.129 124.938 131.125C127.663 131.125 129.981 130.17 131.891 128.26C133.801 126.349 134.754 124.034 134.75 121.312C134.75 120.767 134.722 120.222 134.665 119.677C134.608 119.132 134.473 118.587 134.259 118.042C137.748 118.042 141.183 117.686 144.563 116.975C147.942 116.264 151.213 115.148 154.375 113.626V157.292C154.375 159.145 153.747 160.7 152.491 161.956C151.235 163.212 149.682 163.838 147.833 163.833H141.292C139.438 163.833 137.883 163.205 136.627 161.949C135.371 160.693 134.746 159.141 134.75 157.292V150.75H56.25V157.292C56.25 159.145 55.622 160.7 54.366 161.956C53.11 163.212 51.5575 163.838 49.7084 163.833H43.1667ZM66.0625 131.125C68.7882 131.125 71.1061 130.17 73.0163 128.26C74.9265 126.349 75.8794 124.034 75.875 121.312C75.875 118.587 74.9199 116.269 73.0098 114.359C71.0996 112.448 68.7839 111.495 66.0625 111.5C63.3368 111.5 61.0189 112.455 59.1087 114.365C57.1986 116.275 56.2457 118.591 56.25 121.312C56.25 124.038 57.2051 126.356 59.1153 128.266C61.0254 130.176 63.3412 131.129 66.0625 131.125ZM134.75 104.958C125.701 104.958 117.986 101.768 111.606 95.3877C105.225 89.0074 102.037 81.2948 102.042 72.2498C102.042 63.3096 105.203 55.6231 111.527 49.1905C117.851 42.7578 125.592 39.5415 134.75 39.5415C143.799 39.5415 151.514 42.7295 157.894 49.1054C164.275 55.4814 167.463 63.1962 167.458 72.2498C167.458 81.2991 164.268 89.014 157.888 95.3943C151.508 101.775 143.795 104.963 134.75 104.958ZM134.75 91.8748C135.622 91.8748 136.385 91.5478 137.04 90.8936C137.694 90.2394 138.021 89.4762 138.021 88.604C138.021 87.7318 137.694 86.9686 137.04 86.3144C136.385 85.6603 135.622 85.3332 134.75 85.3332C133.878 85.3332 133.115 85.6603 132.46 86.3144C131.806 86.9686 131.479 87.7318 131.479 88.604C131.479 89.4762 131.806 90.2394 132.46 90.8936C133.115 91.5478 133.878 91.8748 134.75 91.8748ZM131.479 78.7915H138.021V52.6248H131.479V78.7915Z" fill="#FF9000"/>
<mask id="mask0_72_34" style="mask-type:alpha" maskUnits="userSpaceOnUse" x="37" y="40" width="130" height="125">
<path d="M43.5 164.292C41.6584 164.292 40.1135 163.664 38.8655 162.408C37.6175 161.152 36.9957 159.599 37 157.75V105.417L50.65 66.1667C51.3 64.2042 52.4635 62.6233 54.1405 61.424C55.8175 60.2247 57.6874 59.625 59.75 59.625H90.95C90.3 61.6965 89.8125 63.8226 89.4875 66.0031C89.1625 68.1837 89 70.4188 89 72.7083H62.025L55.2 92.3333H93.3875C95.7708 97.5667 99.1032 102.117 103.385 105.986C107.666 109.854 112.404 112.881 117.6 115.066C116.733 116.047 116.083 117.111 115.65 118.258C115.217 119.405 115 120.576 115 121.771C115 124.497 115.949 126.814 117.847 128.725C119.745 130.635 122.046 131.588 124.75 131.583C127.458 131.583 129.762 130.628 131.66 128.718C133.558 126.808 134.504 124.492 134.5 121.771C134.5 121.226 134.472 120.681 134.416 120.135C134.359 119.59 134.225 119.045 134.012 118.5C137.479 118.5 140.892 118.145 144.25 117.434C147.608 116.723 150.858 115.606 154 114.084V157.75C154 159.603 153.376 161.158 152.128 162.414C150.88 163.67 149.337 164.296 147.5 164.292H141C139.158 164.292 137.614 163.664 136.366 162.408C135.118 161.152 134.496 159.599 134.5 157.75V151.208H56.5V157.75C56.5 159.603 55.876 161.158 54.628 162.414C53.38 163.67 51.8374 164.296 50 164.292H43.5ZM66.25 131.583C68.9583 131.583 71.2615 130.628 73.1595 128.718C75.0575 126.808 76.0043 124.492 76 121.771C76 119.045 75.051 116.727 73.153 114.817C71.255 112.907 68.954 111.954 66.25 111.958C63.5417 111.958 61.2385 112.913 59.3405 114.824C57.4425 116.734 56.4957 119.05 56.5 121.771C56.5 124.497 57.449 126.814 59.347 128.725C61.245 130.635 63.546 131.588 66.25 131.583ZM134.5 105.417C125.508 105.417 117.843 102.227 111.503 95.8462C105.163 89.4659 101.996 81.7533 102 72.7083C102 63.7681 105.142 56.0816 111.425 49.649C117.708 43.2163 125.4 40 134.5 40C143.492 40 151.157 43.188 157.497 49.5639C163.837 55.9399 167.004 63.6547 167 72.7083C167 81.7576 163.83 89.4724 157.491 95.8528C151.151 102.233 143.487 105.421 134.5 105.417ZM134.5 92.3333C135.367 92.3333 136.125 92.0063 136.775 91.3521C137.425 90.6979 137.75 89.9347 137.75 89.0625C137.75 88.1903 137.425 87.4271 136.775 86.7729C136.125 86.1187 135.367 85.7917 134.5 85.7917C133.633 85.7917 132.875 86.1187 132.225 86.7729C131.575 87.4271 131.25 88.1903 131.25 89.0625C131.25 89.9347 131.575 90.6979 132.225 91.3521C132.875 92.0063 133.633 92.3333 134.5 92.3333ZM131.25 79.25H137.75V53.0833H131.25V79.25Z" fill="#F87F21"/>
</mask>
<g mask="url(#mask0_72_34)">
<path d="M72.1497 133.891C52.6745 125.091 34.8885 126.557 28.4299 128.391L34.8885 174.891C51.9458 176.057 86.5573 178.391 88.5446 178.391H152.137C157.602 172.891 168.234 158.991 167.041 147.391C165.551 132.891 148.162 133.891 118.85 139.391C89.5382 144.891 96.4936 144.891 72.1497 133.891Z" fill="#FFAA69"/>
</g>
<mask id="mask1_72_34" style="mask-type:alpha" maskUnits="userSpaceOnUse" x="17" y="34" width="157" height="157">
<path d="M43.1667 164.833C41.3132 164.833 39.7585 164.205 38.5025 162.949C37.2465 161.693 36.6207 160.141 36.625 158.292V132.125V105.958L50.3625 66.7084C51.0167 64.7459 52.1876 63.165 53.8754 61.9657C55.5631 60.7664 57.445 60.1667 59.5209 60.1667H90.9209C90.2667 62.2383 89.7761 64.3643 89.449 66.5449C89.1219 68.7254 88.9584 70.9605 88.9584 73.2501H61.8104L54.9417 92.8751H93.374C95.7726 98.1084 99.1263 102.659 103.435 106.528C107.744 110.396 112.513 113.422 117.742 115.607C116.869 116.589 116.215 117.653 115.779 118.8C115.343 119.947 115.125 121.118 115.125 122.313C115.125 125.038 116.08 127.356 117.99 129.266C119.9 131.177 122.216 132.129 124.938 132.125C127.663 132.125 129.981 131.17 131.891 129.26C133.801 127.35 134.754 125.034 134.75 122.313C134.75 121.767 134.722 121.222 134.665 120.677C134.608 120.132 134.473 119.587 134.259 119.042C137.748 119.042 141.183 118.686 144.563 117.975C147.942 117.265 151.213 116.148 154.375 114.626V158.292C154.375 160.145 153.747 161.7 152.491 162.956C151.235 164.212 149.682 164.838 147.833 164.833H141.292C139.438 164.833 137.883 164.205 136.627 162.949C135.371 161.693 134.746 160.141 134.75 158.292V151.75H56.25V158.292C56.25 160.145 55.622 161.7 54.366 162.956C53.11 164.212 51.5575 164.838 49.7084 164.833H43.1667ZM66.0625 132.125C68.7882 132.125 71.1061 131.17 73.0163 129.26C74.9265 127.35 75.8794 125.034 75.875 122.313C75.875 119.587 74.9199 117.269 73.0098 115.359C71.0996 113.449 68.7839 112.496 66.0625 112.5C63.3368 112.5 61.0189 113.455 59.1087 115.365C57.1986 117.276 56.2457 119.591 56.25 122.313C56.25 125.038 57.2051 127.356 59.1153 129.266C61.0254 131.177 63.3412 132.129 66.0625 132.125ZM134.75 105.958C125.701 105.958 117.986 102.768 111.606 96.388C105.225 90.0077 102.037 82.295 102.042 73.2501C102.042 64.3098 105.203 56.6233 111.527 50.1907C117.851 43.7581 125.592 40.5417 134.75 40.5417C143.799 40.5417 151.514 43.7297 157.894 50.1057C164.275 56.4816 167.463 64.1964 167.458 73.2501C167.458 82.2994 164.268 90.0142 157.888 96.3945C151.508 102.775 143.795 105.963 134.75 105.958ZM134.75 92.8751C135.622 92.8751 136.385 92.548 137.04 91.8938C137.694 91.2397 138.021 90.4765 138.021 89.6043C138.021 88.732 137.694 87.9688 137.04 87.3147C136.385 86.6605 135.622 86.3334 134.75 86.3334C133.878 86.3334 133.115 86.6605 132.46 87.3147C131.806 87.9688 131.479 88.732 131.479 89.6043C131.479 90.4765 131.806 91.2397 132.46 91.8938C133.115 92.548 133.878 92.8751 134.75 92.8751ZM131.479 79.7917H138.021V53.6251H131.479V79.7917Z" fill="#F87F21"/>
</mask>
<g mask="url(#mask1_72_34)">
<path d="M118.274 142.982C134.274 134.582 156.607 135.482 165.774 136.982V183.482L84.774 176.982C66.4406 181.148 29.074 185.182 26.274 167.982C22.774 146.482 53.774 139.482 64.274 139.482C74.774 139.482 98.274 153.482 118.274 142.982Z" fill="#FF7A00"/>
</g>
</svg>
