<svg width="192" height="192" viewBox="0 0 192 192" fill="none" xmlns="http://www.w3.org/2000/svg">
<g clip-path="url(#clip0_51_31)">
<path d="M153.591 161.172H145.285V123.286C145.287 123.261 145.287 123.235 145.285 123.209L137.498 68.6327C137.206 66.6478 136.209 64.8345 134.689 63.5246C133.17 62.2148 131.229 61.496 129.223 61.4999H119.816C117.819 61.5084 115.891 62.2328 114.382 63.5416C112.873 64.8503 111.884 66.6567 111.593 68.6327L105.592 110.635L85.4811 95.5547C84.8641 95.0919 84.1304 94.8101 83.3623 94.7409C82.5941 94.6716 81.8218 94.8176 81.132 95.1625C80.4422 95.5074 79.862 96.0376 79.4565 96.6937C79.051 97.3498 78.8363 98.1058 78.8363 98.8771V115.489L52.2569 95.5547C51.6399 95.0919 50.9062 94.8101 50.1381 94.7409C49.3699 94.6716 48.5977 94.8176 47.9078 95.1625C47.218 95.5074 46.6378 96.0376 46.2323 96.6937C45.8269 97.3498 45.6121 98.1058 45.6121 98.8771V161.172H37.306C36.2046 161.172 35.1483 161.61 34.3694 162.389C33.5906 163.168 33.153 164.224 33.153 165.325C33.153 166.427 33.5906 167.483 34.3694 168.262C35.1483 169.041 36.2046 169.478 37.306 169.478H153.591C154.692 169.478 155.748 169.041 156.527 168.262C157.306 167.483 157.744 166.427 157.744 165.325C157.744 164.224 157.306 163.168 156.527 162.389C155.748 161.61 154.692 161.172 153.591 161.172ZM85.0658 148.713H70.5302C69.4288 148.713 68.3724 148.276 67.5936 147.497C66.8148 146.718 66.3772 145.662 66.3772 144.56C66.3772 143.459 66.8148 142.403 67.5936 141.624C68.3724 140.845 69.4288 140.407 70.5302 140.407H85.0658C86.1673 140.407 87.2236 140.845 88.0024 141.624C88.7813 142.403 89.2188 143.459 89.2188 144.56C89.2188 145.662 88.7813 146.718 88.0024 147.497C87.2236 148.276 86.1673 148.713 85.0658 148.713ZM120.367 148.713H105.831C104.729 148.713 103.673 148.276 102.894 147.497C102.115 146.718 101.678 145.662 101.678 144.56C101.678 143.459 102.115 142.403 102.894 141.624C103.673 140.845 104.729 140.407 105.831 140.407H120.367C121.468 140.407 122.524 140.845 123.303 141.624C124.082 142.403 124.52 143.459 124.52 144.56C124.52 145.662 124.082 146.718 123.303 147.497C122.524 148.276 121.468 148.713 120.367 148.713ZM117.6 119.642L113.171 116.32L119.816 69.8059H129.223L136.345 119.642H117.6Z" fill="#4D870B"/>
<mask id="mask0_51_31" style="mask-type:alpha" maskUnits="userSpaceOnUse" x="29" y="53" width="133" height="133">
<path d="M153.591 161.069H145.285V123.183C145.287 123.157 145.287 123.131 145.285 123.105L137.498 68.5294C137.206 66.5446 136.209 64.7312 134.689 63.4214C133.17 62.1115 131.229 61.3927 129.223 61.3966H119.816C117.819 61.4052 115.891 62.1296 114.382 63.4383C112.873 64.7471 111.884 66.5534 111.593 68.5294L105.592 110.532L85.4811 95.4514C84.8641 94.9887 84.1304 94.7069 83.3623 94.6376C82.5941 94.5683 81.8218 94.7143 81.132 95.0593C80.4422 95.4042 79.862 95.9344 79.4565 96.5905C79.051 97.2465 78.8363 98.0026 78.8363 98.7738V115.386L52.2569 95.4514C51.6399 94.9887 50.9062 94.7069 50.1381 94.6376C49.3699 94.5683 48.5977 94.7143 47.9078 95.0593C47.218 95.4042 46.6378 95.9344 46.2323 96.5905C45.8269 97.2465 45.6121 98.0026 45.6121 98.7738V161.069H37.306C36.2046 161.069 35.1483 161.507 34.3694 162.286C33.5906 163.064 33.153 164.121 33.153 165.222C33.153 166.324 33.5906 167.38 34.3694 168.159C35.1483 168.938 36.2046 169.375 37.306 169.375H153.591C154.692 169.375 155.748 168.938 156.527 168.159C157.306 167.38 157.744 166.324 157.744 165.222C157.744 164.121 157.306 163.064 156.527 162.286C155.748 161.507 154.692 161.069 153.591 161.069ZM85.0658 148.61H70.5302C69.4288 148.61 68.3724 148.173 67.5936 147.394C66.8148 146.615 66.3772 145.559 66.3772 144.457C66.3772 143.356 66.8148 142.299 67.5936 141.52C68.3724 140.742 69.4288 140.304 70.5302 140.304H85.0658C86.1673 140.304 87.2236 140.742 88.0024 141.52C88.7813 142.299 89.2188 143.356 89.2188 144.457C89.2188 145.559 88.7813 146.615 88.0024 147.394C87.2236 148.173 86.1673 148.61 85.0658 148.61ZM120.367 148.61H105.831C104.729 148.61 103.673 148.173 102.894 147.394C102.115 146.615 101.678 145.559 101.678 144.457C101.678 143.356 102.115 142.299 102.894 141.52C103.673 140.742 104.729 140.304 105.831 140.304H120.367C121.468 140.304 122.524 140.742 123.303 141.52C124.082 142.299 124.52 143.356 124.52 144.457C124.52 145.559 124.082 146.615 123.303 147.394C122.524 148.173 121.468 148.61 120.367 148.61ZM117.6 119.539L113.171 116.217L119.816 69.7027H129.223L136.345 119.539H117.6Z" fill="#4D870B"/>
<path d="M153.438 160.66H145.132V122.774C145.134 122.748 145.134 122.722 145.132 122.696L137.345 68.1201C137.053 66.1353 136.056 64.3219 134.536 63.0121C133.017 61.7022 131.076 60.9834 129.07 60.9873H119.663C117.666 60.9959 115.738 61.7203 114.229 63.029C112.72 64.3378 111.731 66.1441 111.44 68.1201L105.439 110.123L85.3281 95.0421C84.7111 94.5793 83.9774 94.2975 83.2092 94.2283C82.4411 94.159 81.6688 94.305 80.979 94.6499C80.2892 94.9949 79.709 95.5251 79.3035 96.1812C78.898 96.8372 78.6833 97.5933 78.6833 98.3645V114.977L52.1039 95.0421C51.4869 94.5793 50.7532 94.2975 49.9851 94.2283C49.2169 94.159 48.4446 94.305 47.7548 94.6499C47.065 94.9949 46.4848 95.5251 46.0793 96.1812C45.6738 96.8372 45.4591 97.5933 45.4591 98.3645V160.66H37.153C36.0516 160.66 34.9952 161.097 34.2164 161.876C33.4375 162.655 33 163.711 33 164.813C33 165.914 33.4375 166.971 34.2164 167.75C34.9952 168.528 36.0516 168.966 37.153 168.966H153.438C154.539 168.966 155.595 168.528 156.374 167.75C157.153 166.971 157.591 165.914 157.591 164.813C157.591 163.711 157.153 162.655 156.374 161.876C155.595 161.097 154.539 160.66 153.438 160.66ZM84.9128 148.201H70.3772C69.2758 148.201 68.2194 147.763 67.4406 146.984C66.6617 146.206 66.2242 145.149 66.2242 144.048C66.2242 142.946 66.6617 141.89 67.4406 141.111C68.2194 140.332 69.2758 139.895 70.3772 139.895H84.9128C86.0142 139.895 87.0706 140.332 87.8494 141.111C88.6283 141.89 89.0658 142.946 89.0658 144.048C89.0658 145.149 88.6283 146.206 87.8494 146.984C87.0706 147.763 86.0142 148.201 84.9128 148.201ZM120.213 148.201H105.678C104.576 148.201 103.52 147.763 102.741 146.984C101.962 146.206 101.525 145.149 101.525 144.048C101.525 142.946 101.962 141.89 102.741 141.111C103.52 140.332 104.576 139.895 105.678 139.895H120.213C121.315 139.895 122.371 140.332 123.15 141.111C123.929 141.89 124.367 142.946 124.367 144.048C124.367 145.149 123.929 146.206 123.15 146.984C122.371 147.763 121.315 148.201 120.213 148.201ZM117.447 119.13L113.018 115.807L119.663 69.2934H129.07L136.192 119.13H117.447Z" fill="#4D870B"/>
</mask>
<g mask="url(#mask0_51_31)">
<path d="M83.5 156.711C73.9 149.511 53.1667 148.711 44 149.211L26 163.711C28.3333 167.711 33 175.911 33 176.711C33 177.511 120.667 179.044 164.5 179.711C164.833 175.377 164.2 164.711 159 156.711C153.8 148.711 136.5 151.377 128.5 153.711C117.5 157.711 93.1 163.911 83.5 156.711Z" fill="#71B522"/>
</g>
<mask id="mask1_51_31" style="mask-type:alpha" maskUnits="userSpaceOnUse" x="33" y="61" width="125" height="109">
<path d="M153.438 160.763H145.132V122.877C145.134 122.851 145.134 122.825 145.132 122.799L137.345 68.2234C137.053 66.2385 136.056 64.4252 134.536 63.1153C133.017 61.8055 131.076 61.0867 129.07 61.0906H119.663C117.666 61.0991 115.738 61.8235 114.229 63.1323C112.72 64.441 111.731 66.2474 111.44 68.2234L105.439 110.226L85.3281 95.1454C84.7111 94.6826 83.9774 94.4008 83.2092 94.3316C82.4411 94.2623 81.6688 94.4083 80.979 94.7532C80.2892 95.0981 79.709 95.6283 79.3035 96.2844C78.898 96.9405 78.6833 97.6965 78.6833 98.4678V115.08L52.1039 95.1454C51.4869 94.6826 50.7532 94.4008 49.9851 94.3316C49.2169 94.2623 48.4446 94.4083 47.7548 94.7532C47.065 95.0981 46.4848 95.6283 46.0793 96.2844C45.6738 96.9405 45.4591 97.6965 45.4591 98.4678V160.763H37.153C36.0516 160.763 34.9952 161.201 34.2164 161.98C33.4375 162.758 33 163.815 33 164.916C33 166.018 33.4375 167.074 34.2164 167.853C34.9952 168.632 36.0516 169.069 37.153 169.069H153.438C154.539 169.069 155.595 168.632 156.374 167.853C157.153 167.074 157.591 166.018 157.591 164.916C157.591 163.815 157.153 162.758 156.374 161.98C155.595 161.201 154.539 160.763 153.438 160.763ZM84.9128 148.304H70.3772C69.2758 148.304 68.2194 147.867 67.4406 147.088C66.6617 146.309 66.2242 145.252 66.2242 144.151C66.2242 143.05 66.6617 141.993 67.4406 141.214C68.2194 140.436 69.2758 139.998 70.3772 139.998H84.9128C86.0142 139.998 87.0706 140.436 87.8494 141.214C88.6283 141.993 89.0658 143.05 89.0658 144.151C89.0658 145.252 88.6283 146.309 87.8494 147.088C87.0706 147.867 86.0142 148.304 84.9128 148.304ZM120.213 148.304H105.678C104.576 148.304 103.52 147.867 102.741 147.088C101.962 146.309 101.525 145.252 101.525 144.151C101.525 143.05 101.962 141.993 102.741 141.214C103.52 140.436 104.576 139.998 105.678 139.998H120.213C121.315 139.998 122.371 140.436 123.15 141.214C123.929 141.993 124.367 143.05 124.367 144.151C124.367 145.252 123.929 146.309 123.15 147.088C122.371 147.867 121.315 148.304 120.213 148.304ZM117.447 119.233L113.018 115.91L119.663 69.3966H129.07L136.192 119.233H117.447Z" fill="#4D870B"/>
</mask>
<g mask="url(#mask1_51_31)">
<path d="M95.8469 156.212C125.847 146.712 157.847 147.712 159.347 147.712L172.847 168.712L29.3469 171.212L24.8469 156.212C38.5136 159.378 71.8469 163.812 95.8469 156.212Z" fill="#3E6E07"/>
</g>
</g>
<path d="M94.9838 23.0478C94.9743 20.5991 95.7306 18.2061 97.1512 16.19C98.5718 14.1739 100.589 12.6312 102.931 11.7688C105.274 10.9065 107.83 10.7658 110.257 11.3657C112.684 11.9656 114.865 13.2773 116.508 15.1248C117.699 13.4432 119.409 12.179 121.388 11.5174C123.367 10.8559 125.51 10.8318 127.504 11.4487C129.498 12.0655 131.237 13.291 132.468 14.9453C133.698 16.5997 134.354 18.5961 134.34 20.6419L134.387 20.6374C137 20.6374 139.506 21.6529 141.354 23.4604C143.201 25.268 144.239 27.7196 144.239 30.2758C144.239 32.8321 143.201 35.2837 141.354 37.0912C139.506 38.8988 137 39.9143 134.387 39.9143C134.228 39.9143 134.081 39.8755 133.92 39.8686C134.267 40.7674 134.424 41.7255 134.381 42.6851C134.339 43.6447 134.098 44.586 133.673 45.4521C133.249 46.3182 132.649 47.0911 131.911 47.7243C131.173 48.3575 130.311 48.8378 129.378 49.1361C129.392 49.2799 129.464 49.4032 129.464 49.5516C129.464 50.8296 128.945 52.0552 128.021 52.9589C127.098 53.8625 125.845 54.3702 124.539 54.3702C123.232 54.3702 121.98 53.8625 121.056 52.9589C120.132 52.0552 119.613 50.8296 119.613 49.5516C119.625 48.3776 120.079 47.2492 120.889 46.3833C120.437 45.7158 120.102 44.979 119.898 44.2033C118.862 44.6162 117.743 44.7916 116.626 44.7161C115.51 44.6407 114.427 44.3164 113.458 43.768C112.49 43.2197 111.663 42.4618 111.04 41.5525C110.417 40.6432 110.015 39.6065 109.865 38.5219C108.113 39.5621 106.071 40.0385 104.027 39.884C101.984 39.7294 100.041 38.9517 98.4732 37.6603C96.9051 36.369 95.7905 34.6289 95.2864 32.6853C94.7822 30.7416 94.9138 28.6922 95.6628 26.8256C95.2294 25.6105 95.0001 24.3347 94.9838 23.0478Z" fill="#4D870B"/>
<defs>
<clipPath id="clip0_51_31">
<rect width="132.897" height="132.897" fill="white" transform="translate(29 53.1938)"/>
</clipPath>
</defs>
</svg>
